# Blender v3.2.1 OBJ File: 'GrenadeProjectile.blend'
# www.blender.org
mtllib GrenadeProjectile.mtl
o Cylinder
v 0.000000 -0.542379 1.608063
v 0.000000 -0.559895 -1.608063
v 0.105813 -0.531957 1.608063
v 0.109230 -0.549137 -1.608063
v 0.207559 -0.501092 1.608063
v 0.214263 -0.517276 -1.608063
v 0.301329 -0.450971 1.608063
v 0.311061 -0.465536 -1.608063
v 0.383520 -0.383520 1.608063
v 0.395906 -0.395906 -1.608063
v 0.450971 -0.301329 1.608063
v 0.465536 -0.311061 -1.608063
v 0.501093 -0.207559 1.608063
v 0.517276 -0.214263 -1.608063
v 0.531957 -0.105813 1.608063
v 0.549137 -0.109230 -1.608063
v 0.542379 0.000000 1.608063
v 0.559895 -0.000000 -1.608063
v 0.531957 0.105813 1.608063
v 0.549137 0.109230 -1.608063
v 0.501093 0.207559 1.608063
v 0.517276 0.214263 -1.608063
v 0.450971 0.301330 1.608063
v 0.465536 0.311061 -1.608063
v 0.383520 0.383520 1.608063
v 0.395906 0.395906 -1.608063
v 0.301329 0.450972 1.608063
v 0.311061 0.465536 -1.608063
v 0.207559 0.501093 1.608063
v 0.214263 0.517276 -1.608063
v 0.105813 0.531957 1.608063
v 0.109230 0.549137 -1.608063
v -0.000000 0.542379 1.608063
v -0.000000 0.559895 -1.608063
v -0.105813 0.531957 1.608063
v -0.109230 0.549137 -1.608063
v -0.207559 0.501093 1.608063
v -0.214263 0.517276 -1.608063
v -0.301329 0.450971 1.608063
v -0.311061 0.465536 -1.608063
v -0.383520 0.383520 1.608063
v -0.395906 0.395906 -1.608063
v -0.450971 0.301330 1.608063
v -0.465536 0.311061 -1.608063
v -0.501093 0.207560 1.608063
v -0.517276 0.214263 -1.608063
v -0.531957 0.105813 1.608063
v -0.549137 0.109230 -1.608063
v -0.542379 0.000000 1.608063
v -0.559895 -0.000000 -1.608063
v -0.531957 -0.105813 1.608063
v -0.549137 -0.109230 -1.608063
v -0.501093 -0.207559 1.608063
v -0.517276 -0.214263 -1.608063
v -0.450971 -0.301329 1.608063
v -0.465536 -0.311061 -1.608063
v -0.383520 -0.383520 1.608063
v -0.395906 -0.395906 -1.608063
v -0.301329 -0.450971 1.608063
v -0.311061 -0.465536 -1.608063
v -0.207559 -0.501093 1.608063
v -0.214263 -0.517276 -1.608063
v -0.105813 -0.531957 1.608063
v -0.109230 -0.549137 -1.608063
v 0.000000 -0.629210 1.361093
v 0.000000 -0.629210 -1.349166
v 0.122753 -0.617120 -1.349166
v 0.122753 -0.617120 1.361093
v 0.240788 -0.581314 -1.349166
v 0.240788 -0.581314 1.361093
v 0.349570 -0.523169 -1.349166
v 0.349570 -0.523169 1.361093
v 0.444919 -0.444919 -1.349166
v 0.444919 -0.444919 1.361093
v 0.523169 -0.349570 -1.349166
v 0.523169 -0.349570 1.361093
v 0.581314 -0.240788 -1.349166
v 0.581314 -0.240788 1.361093
v 0.617120 -0.122753 -1.349166
v 0.617120 -0.122753 1.361093
v 0.629210 -0.000000 -1.349166
v 0.629210 0.000000 1.361093
v 0.617120 0.122753 -1.349166
v 0.617120 0.122753 1.361093
v 0.581314 0.240788 -1.349166
v 0.581314 0.240788 1.361093
v 0.523169 0.349570 -1.349166
v 0.523169 0.349570 1.361093
v 0.444919 0.444919 -1.349166
v 0.444919 0.444919 1.361093
v 0.349570 0.523169 -1.349166
v 0.349570 0.523169 1.361093
v 0.240788 0.581314 -1.349166
v 0.240788 0.581314 1.361093
v 0.122753 0.617120 -1.349166
v 0.122753 0.617120 1.361093
v -0.000000 0.629210 -1.349166
v -0.000000 0.629210 1.361093
v -0.122753 0.617120 -1.349166
v -0.122753 0.617120 1.361093
v -0.240788 0.581314 -1.349166
v -0.240788 0.581314 1.361093
v -0.349570 0.523169 -1.349166
v -0.349570 0.523169 1.361093
v -0.444919 0.444919 -1.349166
v -0.444919 0.444919 1.361093
v -0.523169 0.349570 -1.349166
v -0.523169 0.349571 1.361093
v -0.581314 0.240788 -1.349166
v -0.581314 0.240788 1.361093
v -0.617120 0.122753 -1.349166
v -0.617120 0.122753 1.361093
v -0.629210 -0.000000 -1.349166
v -0.629210 0.000000 1.361093
v -0.617120 -0.122753 -1.349166
v -0.617120 -0.122753 1.361093
v -0.581314 -0.240788 -1.349166
v -0.581314 -0.240788 1.361093
v -0.523169 -0.349570 -1.349166
v -0.523169 -0.349570 1.361093
v -0.444919 -0.444919 -1.349166
v -0.444919 -0.444918 1.361093
v -0.349570 -0.523169 -1.349166
v -0.349570 -0.523169 1.361093
v -0.240788 -0.581314 -1.349166
v -0.240788 -0.581314 1.361093
v -0.122753 -0.617120 -1.349166
v -0.122753 -0.617120 1.361093
v 0.000000 -0.559895 -1.608063
v -0.000000 0.559895 -1.608063
vt 1.000000 1.000000
vt 0.968750 0.959750
vt 1.000000 0.959750
vt 0.968750 1.000000
vt 0.937500 0.959750
vt 0.937500 1.000000
vt 0.906250 0.959750
vt 0.875000 1.000000
vt 0.875000 0.959750
vt 0.843750 0.959750
vt 0.812500 1.000000
vt 0.812500 0.959750
vt 0.781250 0.959750
vt 0.781250 1.000000
vt 0.750000 0.959750
vt 0.750000 1.000000
vt 0.718750 0.959750
vt 0.718750 1.000000
vt 0.687500 0.959750
vt 0.687500 1.000000
vt 0.656250 0.959750
vt 0.656250 1.000000
vt 0.625000 0.959750
vt 0.625000 1.000000
vt 0.593750 0.959750
vt 0.593750 1.000000
vt 0.562500 0.959750
vt 0.531250 1.000000
vt 0.531250 0.959750
vt 0.500000 1.000000
vt 0.500000 0.959750
vt 0.468750 0.959750
vt 0.468750 1.000000
vt 0.437500 0.959750
vt 0.437500 1.000000
vt 0.406250 0.959750
vt 0.406250 1.000000
vt 0.375000 0.959750
vt 0.375000 1.000000
vt 0.343750 0.959750
vt 0.343750 1.000000
vt 0.312500 0.959750
vt 0.312500 1.000000
vt 0.281250 0.959750
vt 0.250000 1.000000
vt 0.250000 0.959750
vt 0.218750 0.959750
vt 0.218750 1.000000
vt 0.187500 0.959750
vt 0.187500 1.000000
vt 0.156250 0.959750
vt 0.156250 1.000000
vt 0.125000 0.959750
vt 0.125000 1.000000
vt 0.093750 0.959750
vt 0.093750 1.000000
vt 0.062500 0.959750
vt 0.158156 0.028269
vt 0.471731 0.158156
vt 0.341844 0.471731
vt 0.062500 1.000000
vt 0.031250 0.959750
vt 0.031250 1.000000
vt 0.000000 0.959750
vt 0.796822 0.014612
vt 0.514612 0.203178
vt 0.703178 0.485388
vt 0.031250 0.793083
vt 0.000000 0.500000
vt 0.031250 0.500000
vt 0.000000 0.793083
vt 0.062500 0.793083
vt 0.062500 0.500000
vt 0.093750 0.793083
vt 0.093750 0.500000
vt 0.125000 0.793083
vt 0.125000 0.500000
vt 0.156250 0.793083
vt 0.156250 0.500000
vt 0.187500 0.793083
vt 0.187500 0.500000
vt 0.218750 0.793083
vt 0.218750 0.500000
vt 0.250000 0.793084
vt 0.250000 0.500000
vt 0.281250 0.793083
vt 0.281250 0.500000
vt 0.312500 0.500000
vt 0.312500 0.793083
vt 0.343750 0.793084
vt 0.343750 0.500000
vt 0.375000 0.793083
vt 0.375000 0.500000
vt 0.406250 0.500000
vt 0.406250 0.793083
vt 0.437500 0.793084
vt 0.437500 0.500000
vt 0.468750 0.793083
vt 0.468750 0.500000
vt 0.500000 0.793084
vt 0.500000 0.500000
vt 0.531250 0.793083
vt 0.531250 0.500000
vt 0.562500 0.793083
vt 0.562500 0.500000
vt 0.593750 0.500000
vt 0.593750 0.793084
vt 0.625000 0.793083
vt 0.625000 0.500000
vt 0.656250 0.500000
vt 0.656250 0.793083
vt 0.687500 0.793084
vt 0.687500 0.500000
vt 0.718750 0.793083
vt 0.718750 0.500000
vt 0.750000 0.500000
vt 0.750000 0.793083
vt 0.781250 0.793083
vt 0.781250 0.500000
vt 0.812500 0.793084
vt 0.812500 0.500000
vt 0.843750 0.793083
vt 0.843750 0.500000
vt 0.875000 0.793083
vt 0.875000 0.500000
vt 0.906250 0.793083
vt 0.906250 0.500000
vt 0.937500 0.793084
vt 0.937500 0.500000
vt 0.968750 0.793083
vt 0.968750 0.500000
vt 1.000000 0.793084
vt 1.000000 0.500000
vt 0.906250 1.000000
vt 0.843750 1.000000
vt 0.562500 1.000000
vt 0.281250 1.000000
vt 0.296822 0.485388
vt 0.250000 0.490000
vt 0.203178 0.485388
vt 0.158156 0.471731
vt 0.116663 0.449553
vt 0.080294 0.419706
vt 0.050447 0.383337
vt 0.028269 0.341844
vt 0.014612 0.296822
vt 0.010000 0.250000
vt 0.014612 0.203178
vt 0.028269 0.158156
vt 0.050447 0.116663
vt 0.080294 0.080294
vt 0.116663 0.050447
vt 0.203178 0.014612
vt 0.250000 0.010000
vt 0.296822 0.014612
vt 0.341844 0.028269
vt 0.383337 0.050447
vt 0.419706 0.080294
vt 0.449553 0.116663
vt 0.485388 0.203178
vt 0.490000 0.250000
vt 0.485388 0.296822
vt 0.471731 0.341844
vt 0.449553 0.383337
vt 0.419706 0.419706
vt 0.383337 0.449553
vt 0.000000 1.000000
vt 0.750000 0.490000
vt 0.796822 0.485388
vt 0.841844 0.471731
vt 0.883337 0.449553
vt 0.919706 0.419706
vt 0.985388 0.296822
vt 0.949553 0.383337
vt 0.971731 0.341844
vt 0.990000 0.250000
vt 0.985388 0.203178
vt 0.971731 0.158156
vt 0.949553 0.116663
vt 0.919706 0.080294
vt 0.883337 0.050447
vt 0.841844 0.028269
vt 0.750000 0.010000
vt 0.703178 0.014612
vt 0.658156 0.028269
vt 0.616663 0.050447
vt 0.580294 0.080294
vt 0.550447 0.116663
vt 0.528269 0.158156
vt 0.510000 0.250000
vt 0.514612 0.296822
vt 0.528269 0.341844
vt 0.550447 0.383337
vt 0.580294 0.419706
vt 0.616663 0.449553
vt 0.658156 0.471731
vn 0.0947 -0.9616 -0.2575
vn 0.2805 -0.9247 -0.2575
vn 0.4555 -0.8522 -0.2575
vn 0.6130 -0.7470 -0.2575
vn 0.7470 -0.6130 -0.2575
vn 0.8522 -0.4555 -0.2575
vn 0.9247 -0.2805 -0.2575
vn 0.9616 -0.0947 -0.2575
vn 0.9616 0.0947 -0.2575
vn 0.9247 0.2805 -0.2575
vn 0.8522 0.4555 -0.2575
vn 0.7470 0.6130 -0.2575
vn 0.6130 0.7470 -0.2575
vn 0.4555 0.8522 -0.2575
vn 0.2805 0.9247 -0.2575
vn 0.0947 0.9616 -0.2575
vn -0.0947 0.9616 -0.2575
vn -0.2805 0.9247 -0.2575
vn -0.4555 0.8522 -0.2575
vn -0.6130 0.7470 -0.2575
vn -0.7470 0.6130 -0.2575
vn -0.8522 0.4555 -0.2575
vn -0.9247 0.2805 -0.2575
vn -0.9616 0.0947 -0.2575
vn -0.9616 -0.0947 -0.2575
vn -0.9247 -0.2805 -0.2575
vn -0.8522 -0.4555 -0.2575
vn -0.7470 -0.6130 -0.2575
vn -0.6130 -0.7470 -0.2575
vn -0.4555 -0.8522 -0.2575
vn 0.0000 0.0000 -1.0000
vn -0.2805 -0.9247 -0.2575
vn -0.0947 -0.9616 -0.2575
vn -0.0000 0.0000 1.0000
vn -0.0925 -0.9393 0.3303
vn -0.0980 -0.9952 0.0000
vn -0.2740 -0.9032 0.3303
vn -0.2903 -0.9569 0.0000
vn -0.4449 -0.8324 0.3303
vn -0.4714 -0.8819 0.0000
vn -0.5988 -0.7296 0.3303
vn -0.6344 -0.7730 0.0000
vn -0.7296 -0.5988 0.3303
vn -0.7730 -0.6344 0.0000
vn -0.8324 -0.4449 0.3303
vn -0.8819 -0.4714 0.0000
vn -0.9032 -0.2740 0.3303
vn -0.9569 -0.2903 0.0000
vn -0.9393 -0.0925 0.3303
vn -0.9952 -0.0980 0.0000
vn -0.9393 0.0925 0.3303
vn -0.9952 0.0980 -0.0000
vn -0.9032 0.2740 0.3303
vn -0.9569 0.2903 -0.0000
vn -0.8324 0.4449 0.3303
vn -0.8819 0.4714 -0.0000
vn -0.7296 0.5988 0.3303
vn -0.7730 0.6344 -0.0000
vn -0.5988 0.7296 0.3303
vn -0.6344 0.7730 -0.0000
vn -0.4449 0.8324 0.3303
vn -0.4714 0.8819 0.0000
vn -0.2740 0.9032 0.3303
vn -0.2903 0.9569 -0.0000
vn -0.0925 0.9393 0.3303
vn -0.0980 0.9952 -0.0000
vn 0.0925 0.9393 0.3303
vn 0.0980 0.9952 -0.0000
vn 0.2740 0.9032 0.3303
vn 0.2903 0.9569 -0.0000
vn 0.4449 0.8324 0.3303
vn 0.4714 0.8819 -0.0000
vn 0.5988 0.7296 0.3303
vn 0.6344 0.7730 -0.0000
vn 0.7296 0.5988 0.3303
vn 0.7730 0.6344 -0.0000
vn 0.8324 0.4449 0.3303
vn 0.8819 0.4714 -0.0000
vn 0.9032 0.2740 0.3303
vn 0.9569 0.2903 -0.0000
vn 0.9393 0.0925 0.3303
vn 0.9952 0.0980 -0.0000
vn 0.9393 -0.0925 0.3303
vn 0.9952 -0.0980 0.0000
vn 0.9032 -0.2740 0.3303
vn 0.9569 -0.2903 0.0000
vn 0.8324 -0.4449 0.3303
vn 0.8819 -0.4714 0.0000
vn 0.7296 -0.5988 0.3303
vn 0.7730 -0.6344 0.0000
vn 0.5988 -0.7296 0.3303
vn 0.6344 -0.7730 0.0000
vn 0.4449 -0.8324 0.3303
vn 0.4714 -0.8819 0.0000
vn 0.2740 -0.9032 0.3303
vn 0.2903 -0.9569 0.0000
vn 0.0925 -0.9393 0.3303
vn 0.0980 -0.9952 0.0000
usemtl Material.001
s off
f 2/1/1 67/2/1 66/3/1
f 4/4/2 69/5/2 67/2/2
f 6/6/3 71/7/3 69/5/3
f 71/7/4 10/8/4 73/9/4
f 10/8/5 75/10/5 73/9/5
f 75/10/6 14/11/6 77/12/6
f 14/11/7 79/13/7 77/12/7
f 16/14/8 81/15/8 79/13/8
f 18/16/9 83/17/9 81/15/9
f 20/18/10 85/19/10 83/17/10
f 22/20/11 87/21/11 85/19/11
f 24/22/12 89/23/12 87/21/12
f 26/24/13 91/25/13 89/23/13
f 28/26/14 93/27/14 91/25/14
f 93/27/15 32/28/15 95/29/15
f 95/29/16 34/30/16 97/31/16
f 34/30/17 99/32/17 97/31/17
f 36/33/18 101/34/18 99/32/18
f 38/35/19 103/36/19 101/34/19
f 40/37/20 105/38/20 103/36/20
f 42/39/21 107/40/21 105/38/21
f 44/41/22 109/42/22 107/40/22
f 46/43/23 111/44/23 109/42/23
f 111/44/24 50/45/24 113/46/24
f 50/45/25 115/47/25 113/46/25
f 52/48/26 117/49/26 115/47/26
f 54/50/27 119/51/27 117/49/27
f 56/52/28 121/53/28 119/51/28
f 58/54/29 123/55/29 121/53/29
f 60/56/30 125/57/30 123/55/30
f 38/58/31 22/59/31 6/60/31
f 62/61/32 127/62/32 125/57/32
f 64/63/33 66/64/33 127/62/33
f 31/65/34 47/66/34 63/67/34
f 128/68/35 1/69/35 63/70/35
f 127/62/36 65/71/36 128/68/36
f 126/72/37 63/70/37 61/73/37
f 125/57/38 128/68/38 126/72/38
f 124/74/39 61/73/39 59/75/39
f 123/55/40 126/72/40 124/74/40
f 122/76/41 59/75/41 57/77/41
f 121/53/42 124/74/42 122/76/42
f 120/78/43 57/77/43 55/79/43
f 119/51/44 122/76/44 120/78/44
f 118/80/45 55/79/45 53/81/45
f 117/49/46 120/78/46 118/80/46
f 116/82/47 53/81/47 51/83/47
f 115/47/48 118/80/48 116/82/48
f 114/84/49 51/83/49 49/85/49
f 113/46/50 116/82/50 114/84/50
f 112/86/51 49/85/51 47/87/51
f 111/44/52 114/84/52 112/86/52
f 45/88/53 112/86/53 47/87/53
f 109/42/54 112/86/54 110/89/54
f 108/90/55 45/88/55 43/91/55
f 107/40/56 110/89/56 108/90/56
f 106/92/57 43/91/57 41/93/57
f 105/38/58 108/90/58 106/92/58
f 39/94/59 106/92/59 41/93/59
f 103/36/60 106/92/60 104/95/60
f 102/96/61 39/94/61 37/97/61
f 101/34/62 104/95/62 102/96/62
f 100/98/63 37/97/63 35/99/63
f 99/32/64 102/96/64 100/98/64
f 98/100/65 35/99/65 33/101/65
f 97/31/66 100/98/66 98/100/66
f 96/102/67 33/101/67 31/103/67
f 95/29/68 98/100/68 96/102/68
f 94/104/69 31/103/69 29/105/69
f 93/27/70 96/102/70 94/104/70
f 27/106/71 94/104/71 29/105/71
f 91/25/72 94/104/72 92/107/72
f 90/108/73 27/106/73 25/109/73
f 89/23/74 92/107/74 90/108/74
f 23/110/75 90/108/75 25/109/75
f 87/21/76 90/108/76 88/111/76
f 86/112/77 23/110/77 21/113/77
f 85/19/78 88/111/78 86/112/78
f 84/114/79 21/113/79 19/115/79
f 83/17/80 86/112/80 84/114/80
f 17/116/81 84/114/81 19/115/81
f 81/15/82 84/114/82 82/117/82
f 80/118/83 17/116/83 15/119/83
f 79/13/84 82/117/84 80/118/84
f 78/120/85 15/119/85 13/121/85
f 77/12/86 80/118/86 78/120/86
f 76/122/87 13/121/87 11/123/87
f 75/10/88 78/120/88 76/122/88
f 74/124/89 11/123/89 9/125/89
f 73/9/90 76/122/90 74/124/90
f 72/126/91 9/125/91 7/127/91
f 71/7/92 74/124/92 72/126/92
f 70/128/93 7/127/93 5/129/93
f 69/5/94 72/126/94 70/128/94
f 68/130/95 5/129/95 3/131/95
f 67/2/96 70/128/96 68/130/96
f 65/132/97 3/131/97 1/133/97
f 66/3/98 68/130/98 65/132/98
f 2/1/1 4/4/1 67/2/1
f 4/4/2 6/6/2 69/5/2
f 6/6/3 8/134/3 71/7/3
f 71/7/4 8/134/4 10/8/4
f 10/8/5 12/135/5 75/10/5
f 75/10/6 12/135/6 14/11/6
f 14/11/7 16/14/7 79/13/7
f 16/14/8 18/16/8 81/15/8
f 18/16/9 20/18/9 83/17/9
f 20/18/10 22/20/10 85/19/10
f 22/20/11 24/22/11 87/21/11
f 24/22/12 26/24/12 89/23/12
f 26/24/13 28/26/13 91/25/13
f 28/26/14 30/136/14 93/27/14
f 93/27/15 30/136/15 32/28/15
f 95/29/16 32/28/16 34/30/16
f 34/30/17 36/33/17 99/32/17
f 36/33/18 38/35/18 101/34/18
f 38/35/19 40/37/19 103/36/19
f 40/37/20 42/39/20 105/38/20
f 42/39/21 44/41/21 107/40/21
f 44/41/22 46/43/22 109/42/22
f 46/43/23 48/137/23 111/44/23
f 111/44/24 48/137/24 50/45/24
f 50/45/25 52/48/25 115/47/25
f 52/48/26 54/50/26 117/49/26
f 54/50/27 56/52/27 119/51/27
f 56/52/28 58/54/28 121/53/28
f 58/54/29 60/56/29 123/55/29
f 60/56/30 62/61/30 125/57/30
f 6/60/31 4/138/31 2/139/31
f 2/139/31 64/140/31 6/60/31
f 64/140/31 62/141/31 6/60/31
f 62/141/31 60/142/31 58/143/31
f 58/143/31 56/144/31 54/145/31
f 54/145/31 52/146/31 50/147/31
f 50/147/31 48/148/31 54/145/31
f 48/148/31 46/149/31 54/145/31
f 46/149/31 44/150/31 42/151/31
f 42/151/31 40/152/31 38/58/31
f 38/58/31 36/153/31 34/154/31
f 34/154/31 32/155/31 30/156/31
f 30/156/31 28/157/31 26/158/31
f 26/158/31 24/159/31 22/59/31
f 22/59/31 20/160/31 18/161/31
f 18/161/31 16/162/31 14/163/31
f 14/163/31 12/164/31 10/165/31
f 10/165/31 8/166/31 6/60/31
f 62/141/31 58/143/31 6/60/31
f 58/143/31 54/145/31 6/60/31
f 46/149/31 42/151/31 38/58/31
f 38/58/31 34/154/31 30/156/31
f 30/156/31 26/158/31 22/59/31
f 22/59/31 18/161/31 14/163/31
f 14/163/31 10/165/31 22/59/31
f 10/165/31 6/60/31 22/59/31
f 54/145/31 46/149/31 38/58/31
f 38/58/31 30/156/31 22/59/31
f 6/60/31 54/145/31 38/58/31
f 62/61/32 64/63/32 127/62/32
f 64/63/33 2/167/33 66/64/33
f 63/67/34 1/168/34 3/169/34
f 3/169/34 5/170/34 63/67/34
f 5/170/34 7/171/34 63/67/34
f 7/171/34 9/172/34 15/173/34
f 9/172/34 11/174/34 15/173/34
f 11/174/34 13/175/34 15/173/34
f 15/173/34 17/176/34 19/177/34
f 19/177/34 21/178/34 15/173/34
f 21/178/34 23/179/34 15/173/34
f 23/179/34 25/180/34 27/181/34
f 27/181/34 29/182/34 23/179/34
f 29/182/34 31/65/34 23/179/34
f 31/65/34 33/183/34 35/184/34
f 35/184/34 37/185/34 31/65/34
f 37/185/34 39/186/34 31/65/34
f 39/186/34 41/187/34 43/188/34
f 43/188/34 45/189/34 47/66/34
f 47/66/34 49/190/34 51/191/34
f 51/191/34 53/192/34 55/193/34
f 55/193/34 57/194/34 59/195/34
f 59/195/34 61/196/34 55/193/34
f 61/196/34 63/67/34 55/193/34
f 39/186/34 43/188/34 31/65/34
f 43/188/34 47/66/34 31/65/34
f 47/66/34 51/191/34 55/193/34
f 63/67/34 7/171/34 15/173/34
f 15/173/34 23/179/34 31/65/34
f 47/66/34 55/193/34 63/67/34
f 63/67/34 15/173/34 31/65/34
f 128/68/35 65/71/35 1/69/35
f 127/62/36 66/64/36 65/71/36
f 126/72/37 128/68/37 63/70/37
f 125/57/38 127/62/38 128/68/38
f 124/74/39 126/72/39 61/73/39
f 123/55/40 125/57/40 126/72/40
f 122/76/41 124/74/41 59/75/41
f 121/53/42 123/55/42 124/74/42
f 120/78/43 122/76/43 57/77/43
f 119/51/44 121/53/44 122/76/44
f 118/80/45 120/78/45 55/79/45
f 117/49/46 119/51/46 120/78/46
f 116/82/47 118/80/47 53/81/47
f 115/47/48 117/49/48 118/80/48
f 114/84/49 116/82/49 51/83/49
f 113/46/50 115/47/50 116/82/50
f 112/86/51 114/84/51 49/85/51
f 111/44/52 113/46/52 114/84/52
f 45/88/53 110/89/53 112/86/53
f 109/42/54 111/44/54 112/86/54
f 108/90/55 110/89/55 45/88/55
f 107/40/56 109/42/56 110/89/56
f 106/92/57 108/90/57 43/91/57
f 105/38/58 107/40/58 108/90/58
f 39/94/59 104/95/59 106/92/59
f 103/36/60 105/38/60 106/92/60
f 102/96/61 104/95/61 39/94/61
f 101/34/62 103/36/62 104/95/62
f 100/98/63 102/96/63 37/97/63
f 99/32/64 101/34/64 102/96/64
f 98/100/65 100/98/65 35/99/65
f 97/31/66 99/32/66 100/98/66
f 96/102/67 98/100/67 33/101/67
f 95/29/68 97/31/68 98/100/68
f 94/104/69 96/102/69 31/103/69
f 93/27/70 95/29/70 96/102/70
f 27/106/71 92/107/71 94/104/71
f 91/25/72 93/27/72 94/104/72
f 90/108/73 92/107/73 27/106/73
f 89/23/74 91/25/74 92/107/74
f 23/110/75 88/111/75 90/108/75
f 87/21/76 89/23/76 90/108/76
f 86/112/77 88/111/77 23/110/77
f 85/19/78 87/21/78 88/111/78
f 84/114/79 86/112/79 21/113/79
f 83/17/80 85/19/80 86/112/80
f 17/116/81 82/117/81 84/114/81
f 81/15/82 83/17/82 84/114/82
f 80/118/83 82/117/83 17/116/83
f 79/13/84 81/15/84 82/117/84
f 78/120/85 80/118/85 15/119/85
f 77/12/86 79/13/86 80/118/86
f 76/122/87 78/120/87 13/121/87
f 75/10/88 77/12/88 78/120/88
f 74/124/89 76/122/89 11/123/89
f 73/9/90 75/10/90 76/122/90
f 72/126/91 74/124/91 9/125/91
f 71/7/92 73/9/92 74/124/92
f 70/128/93 72/126/93 7/127/93
f 69/5/94 71/7/94 72/126/94
f 68/130/95 70/128/95 5/129/95
f 67/2/96 69/5/96 70/128/96
f 65/132/97 68/130/97 3/131/97
f 66/3/98 67/2/98 68/130/98
l 129 130
l 1 33
l 50 129
l 50 130
l 18 130
l 18 129
l 17 33
l 1 17
l 33 49
l 1 49
